<?xml version="1.0" encoding="UTF-8" standalone="no"?>
<!-- Created with Inkscape (http://www.inkscape.org/) -->

<svg
   xmlns:dc="http://purl.org/dc/elements/1.1/"
   xmlns:cc="http://creativecommons.org/ns#"
   xmlns:rdf="http://www.w3.org/1999/02/22-rdf-syntax-ns#"
   xmlns:svg="http://www.w3.org/2000/svg"
   xmlns="http://www.w3.org/2000/svg"
   xmlns:sodipodi="http://sodipodi.sourceforge.net/DTD/sodipodi-0.dtd"
   xmlns:inkscape="http://www.inkscape.org/namespaces/inkscape"
   width="502.42633"
   height="295.06186"
   id="svg5669"
   version="1.1"
   inkscape:version="0.48.4 r9939"
   sodipodi:docname="Nuevo documento 8">
  <defs
     id="defs5671" />
  <sodipodi:namedview
     id="base"
     pagecolor="#ffffff"
     bordercolor="#666666"
     borderopacity="1.0"
     inkscape:pageopacity="0.0"
     inkscape:pageshadow="2"
     inkscape:zoom="0.24748737"
     inkscape:cx="407.66601"
     inkscape:cy="164.24378"
     inkscape:document-units="px"
     inkscape:current-layer="layer1"
     showgrid="false"
     fit-margin-top="0"
     fit-margin-left="0"
     fit-margin-right="0"
     fit-margin-bottom="0"
     inkscape:window-width="474"
     inkscape:window-height="443"
     inkscape:window-x="552"
     inkscape:window-y="123"
     inkscape:window-maximized="0" />
  <metadata
     id="metadata5674">
    <rdf:RDF>
      <cc:Work
         rdf:about="">
        <dc:format>image/svg+xml</dc:format>
        <dc:type
           rdf:resource="http://purl.org/dc/dcmitype/StillImage" />
        <dc:title></dc:title>
      </cc:Work>
    </rdf:RDF>
  </metadata>
  <g
     inkscape:label="Capa 1"
     inkscape:groupmode="layer"
     id="layer1"
     transform="translate(-334.50107,-353.40268)">
    <g
       transform="matrix(0,-1,1,0,-1346.1158,742.77901)"
       id="g5638">
      <path
         sodipodi:nodetypes="ccccccccscccscscccc"
         transform="matrix(0,1,-1,0,570.0691,533.11687)"
         inkscape:connector-curvature="0"
         id="path5620"
         d="m 1149,359.98486 115.75,-22.75 0,-11 -117.25,-16.25 0,-3.75 c 0,0 85.0119,-15.54556 130,-3.75 21.2066,6.06768 35.7332,1.11593 55.5,-3.5 19.6959,-0.18961 38.7298,-19.52949 55.4042,-30.49257 0,0 4.1352,7.48459 5.48,22.27386 0.088,0.97227 -33.7643,23.5113 -33.7643,23.5113 l -33.9411,7.24785 1.591,17.67766 c 0,0 23.3345,0.70711 31.4662,5.30331 8.1317,4.59619 35.7089,22.62741 35.7089,22.62741 0,0 -0.8839,16.97057 -3.7123,22.09709 -2.8284,5.12652 -48.7904,-29.16816 -48.7904,-29.16816 l -43.3103,-5.3033 c -78.0124,19.99951 -96.1435,10.1687 -150.0834,8.04334 z"
         style="fill:#999696;fill-opacity:1;stroke:none" />
      <path
         style="fill:#d64545;fill-opacity:1;stroke:none"
         d="m 269.972,1924.9405 c -7.10679,0.7963 110.98751,127.1457 78.1353,235.8201 -1.00689,3.3308 10.35862,17.5137 19.44544,20.8596 2.09834,0.7726 4.42555,0.6884 6.36396,-2.1213 12.85928,-18.6392 14.84924,-52.6794 14.84924,-52.6794 0,0 7.59004,-69.0364 -30.75914,-134.7039 -14.60926,-25.0163 -49.40024,-71.5039 -49.40024,-71.5039 z"
         id="path5636"
         inkscape:connector-curvature="0"
         sodipodi:nodetypes="sssscscs" />
      <path
         transform="matrix(0,1,-1,0,574.0691,527.61687)"
         d="m 1312.25,335.23486 c 0,6.62742 -5.3726,12 -12,12 -6.6274,0 -12,-5.37258 -12,-12 0,-6.62741 5.3726,-12 12,-12 6.6274,0 12,5.37259 12,12 z"
         sodipodi:ry="12"
         sodipodi:rx="12"
         sodipodi:cy="335.23486"
         sodipodi:cx="1300.25"
         id="path5622"
         style="color:#000000;fill:none;stroke:#575757;stroke-width:1;stroke-miterlimit:4;stroke-opacity:1;stroke-dasharray:none;marker:none;visibility:visible;display:inline;overflow:visible;enable-background:accumulate"
         sodipodi:type="arc" />
      <path
         transform="matrix(0,1,-1,0,570.0691,533.11687)"
         inkscape:connector-curvature="0"
         id="path5624"
         d="m 1232.3103,343.53399 -0.1767,4.06587 32.0849,-6.18719 -0.2651,-3.97747 z"
         style="fill:#000000;fill-opacity:1;stroke:none" />
      <path
         style="fill:#000000;fill-opacity:1;stroke:none"
         d="m 248.53826,1764.8678 4.05399,-0.3572 -4.75461,32.3282 -3.98532,-0.088 z"
         id="path5626"
         inkscape:connector-curvature="0" />
      <path
         sodipodi:nodetypes="cssccc"
         transform="matrix(0,1,-1,0,570.0691,533.11687)"
         inkscape:connector-curvature="0"
         id="path5628"
         d="m 1262.4748,325.61261 c 0,0 5.058,-20.14681 16.8581,-22.11854 2.5562,-0.42712 8.608,2.21721 11.8783,1.76529 1.8573,-0.25665 3.4817,0.34347 3.4817,0.34347 l -25.1755,6.68902 z"
         style="fill:#000000;fill-opacity:1;stroke:none" />
      <path
         transform="matrix(0,1,-1,0,570.0691,533.11687)"
         inkscape:connector-curvature="0"
         id="path5630"
         d="m 1299.8125,354.60986 21.375,-4.8125 c 0,0 -4.625,6.5625 -6.25,6.75 -1.625,0.1875 -15.125,-1.9375 -15.125,-1.9375 z"
         style="fill:#000000;fill-opacity:1;stroke:none" />
      <path
         sodipodi:nodetypes="cc"
         transform="matrix(0,1,-1,0,570.0691,533.11687)"
         inkscape:connector-curvature="0"
         id="path5632"
         d="m 1327.56,336.29097 c 0,0 -4.935,11.50639 -8.2475,15.06889"
         style="fill:none;stroke:#000000;stroke-width:1px;stroke-linecap:round;stroke-linejoin:miter;stroke-opacity:1" />
      <path
         sodipodi:nodetypes="sssscscs"
         inkscape:connector-curvature="0"
         id="path5634"
         d="m 213.7188,1925.9457 c 7.10679,0.7963 -110.98751,127.1457 -78.1353,235.8201 1.00689,3.3308 -10.35862,17.5137 -19.44544,20.8596 -2.09834,0.7726 -4.42555,0.6884 -6.36396,-2.1213 -12.85928,-18.6392 -14.84924,-52.6794 -14.84924,-52.6794 0,0 -7.59004,-69.0364 30.75914,-134.7039 14.60926,-25.0163 49.40024,-71.5039 49.40024,-71.5039 z"
         style="fill:#d64545;stroke:none" />
    </g>
  </g>
</svg>
